<svg width="512" height="512" fill="none" xmlns="http://www.w3.org/2000/svg">
<path d="M423.0550376439455,205.05152241979368 402.48043476574253,215.62763813698837 393.9420770369994,216.29974028399613 394.65490634883463,207.11204773838284 379.90855730611264,190.15515938226295 377.667854770721,188.51262201477462 377.0733530506622,191.54366244172562 377.44678546529076,192.023839357062 377.2423058847145,188.2290780126649 422.7501177630199,175.76020644263554 415.24674258141744,179.0990632623618 0.0,9.419279070633124 28.45637941316579,41.374219106093676 28.654652434804973,41.56350366299807 41.36084039927934,52.98116099721817 97.16434392725711,52.94986370708716 110.98420352621443,62.34554694302285 119.2148213144149,62.08787007804865 121.0063278928435,70.59596597112433 122.09598422581763,72.34440460174676 123.80946652277296,73.33873794178261 124.72353684287268,74.94831055116296 82.42305291179716,43.556909418350074 96.3035262215129,43.964740356964555 100.96963397486445,31.668401651099018 100.980678299397,29.97899814898844 111.55886930959815,21.70800907777894 94.21720705336267,1.023095084327423 89.94288900404814,19.10557463416606 88.6602551348171,15.901963322810076 49.6993360469028,15.023938336099349 48.66328352961119,12.967799516367762 46.72314517303781,12.967799516367762 135.89077949401786,157.62121701077584 136.30877565700152,157.10154860147392 135.7831863669701,156.1724966036365 134.75903561894998,153.16674757826897 134.47848913322923,152.38976639830523 137.71443671323917,151.36708784988664 152.66565644690013,149.36045049185597 173.13207428845672,156.28899189672387 169.8174805393947,163.1294872882782 318.5866802750237,206.97713159593985 318.0629477331065,207.2094958797493 313.986005814484,211.49469045333902 321.4850495127505,203.78724560826197 255.8141989937323,143.29831586592965 229.22670128954042,148.61390018895742 229.91858421872453,150.859476999325 227.60992195994308,156.89494632448313 265.51006670385067,189.34256630357282 281.10211869616484,175.8284492247052 260.57430583305046,152.393602293064 180.85720611856783,28.373252654367093 165.28674011481726,37.87154573429764 207.50112653960736,45.029699491505454 223.05502012308068,54.849288094681114 220.6312063771092,55.22135176761394 199.3245663514969,40.111617650648 207.52571611929517,44.96656202850214 223.08058074817507,54.78785762854537 220.65648164168545,55.159989902511356 199.34862315173217,40.047528894476955 197.9940067729034,95.39756363091416 206.8349086418529,70.56124757842058 212.6519310379582,72.09565420353891 208.8451972920534,91.39938978860872 208.8926936892721,90.7407020776312 257.7402451686705,68.6954969829444 248.5485159802062,68.8736812354038 247.01063829661445,66.81828689670029 247.34850007324033,65.65046172435481 246.72291044772413,64.74914636612326 236.33948289022223,58.09074824023202 250.90372764693905,29.97899814898844 442.742644616357,117.37075573568328 451.1904342892651,108.7728168291471 473.0590428312734,74.57732823141123 474.9361496139136,73.83535855061828 466.804897889211,88.44614968823798 468.83100424074763,88.56321322181617 453.07019499688397,112.42368779223024 441.80694605513884,122.57224458621349 440.7678837917126,123.21656419101141 418.44609891660065,0.0 461.00123319938234,7.260957294233236 511.5009460215468,21.398433525397394 502.5497018875096,14.092299084035034 352.6426765491655,11.906228000541532 353.4910598740686,11.070424728532473 354.8261562616708,11.592996662836924 355.685090350701,11.906228000541532 360.21068871397836,4.748890299198052 360.7789534262794,5.067188758670767 366.8050794851057,5.279257805453426 361.16262962833275,1.659948039677289 417.28918714179923,0.05364415560671887 418.44609891660065,0.0 340.9575532047023,67.9652841408518 338.7913796915011,66.44577881172096 339.56841813144206,40.152473178863985 341.27748512337496,36.4264488090802 342.7095419155944,22.655955723300863 343.3494443368262,20.786080835219394 342.61937766934517,20.070487034932512 342.455473642313,18.018917305071255 340.5404106360479,17.504400795116197 342.03039552352044,7.07764808687233 342.8462001341676,4.961115257419692 376.29786897923447,89.3546966727308 356.71922979047685,94.69581123474032 344.0656585459485,81.0773506001656 343.1724006225862,80.03521002743005 342.0643142830759,79.66178895795046 366.8959065432155,100.00433103302919 356.71922979047685,94.69581123474032 344.0656585459485,81.0773506001656 343.1724006225862,80.03521002743005 342.0643142830759,79.66178895795046 340.6480369107102,79.57385365221197 330.80006049025417,84.18876785707184 329.82656509360316,84.06911833840022 316.39519268627436,100.40578082651652 327.43661555971954,118.71885253471471 327.44290185254386,120.05816706440409 366.89095577694155,100.96998723456221 281.05755389060903,126.8279512012497 326.6974621018155,172.78765097072878 335.42985466172183,164.18536912886566 335.31135416080815,163.19865242093084 338.6521561428144,151.96957294999774 339.47734467023474,151.2873656757481 328.0570505426095,126.83693004583641 351.29753084344486,158.118577678776 382.36781097909545,148.47793018585725 362.1375572324732,121.86768266528145 361.0611834789199,123.0146176218351 395.3006860305321,169.8252591904982 394.3708970327594,168.15341739397184 378.67366454190426,154.1761736543709 382.36781097909545,148.47793018585725 386.9193683037302,144.40678420291997 387.7902839275537,143.9391534703539 362.1375572324732,121.86768266528145 361.0611834789199,123.0146176218351 374.5388811104629,89.49057775332659 391.13249651341556,108.06811360893508 402.3788843442462,113.27377172253652 391.13249651341556,108.06811360893508 402.3788843442462,113.27377172253652 425.03885105444135,73.60118094806955 425.03885105444135,73.60118094806955 268.5582665073451,77.99603172131285 271.15949033422686,102.73579874272406 282.07668306062277,118.00307282867871 297.7577067878862,115.34581184127008 297.43201416192505,116.08731797450679 303.564214526964,120.62665694525916 315.92242466987676,112.84914539566009 314.68568181338793,109.52964816386502 316.9220873342383,101.29207046140814 328.87044837594044,83.22061798098956 329.6772885543031,84.05897615388255 340.80369619401944,67.9545642607974 338.63703916580585,66.4350060215606 339.40680727205813,40.14058982105669 341.1149168161337,36.41444400349627 263.1190226259811,111.83740176667587 263.30818612949815,114.17371601675882 236.9902631729451,126.26592858246423 236.15586655368995,137.12418831920783 268.5582665073451,77.99603172131285 271.15949033422686,102.73579874272406 269.2744929735566,114.17371601675882 263.30818612949815,114.17371601675882 248.19769311038883,70.8268479091402 247.73997852919604,71.62224569834788 260.57430583305046,152.393602293064 292.1388876399958,154.4716344885628 293.0742412631601,153.7614371064291 295.0997241586151,153.7614371064291 296.26134366572404,153.16674757826897 299.855158126206,166.98859092639705 281.10211869616484,175.8284492247052 299.7202097293817,166.8820739654069 303.0568892248593,200.73687541801246 265.80767939289905,189.44291256047455 303.15856304055916,200.86810780498726 271.6972919336133,198.58061334453134 169.8174805393947,163.1294872882782 211.7762255838894,182.06115751583167 211.97403701961457,178.16587659300728 195.78009480493745,206.6227382161024 195.3963624870998,209.50063634461696 205.31696979006728,216.24891622043918 201.77057614303885,215.82726241783996 168.26748787897122,188.49870558620546 102.38701264648014,78.44477151631386 86.81287928174879,116.97369528273241 126.84131552436898,41.66182115414968 156.75754552844325,62.666259643672674 157.609542187353,64.5685714715989 159.31341701817132,63.120230440867616 124.5984381224192,74.94831055116296 83.6492770234479,115.71688972338637 110.40589313184319,132.90043835482047 111.12470752632856,134.11774808106495 121.89751575844264,147.1391178879455 393.9420770369994,216.29974028399613 394.65490634883463,207.11204773838284 403.01806821864255,197.66831539174729 41.36084039927934,52.98116099721817 58.57174672051423,77.99603172131285 59.278476377740844,78.94308280207747 92.90518231406301,78.85699155528506 Z" fill="white"/>
</svg>
